<svg xmlns="http://www.w3.org/2000/svg" xmlns:xlink="http://www.w3.org/1999/xlink" width="500" zoomAndPan="magnify" viewBox="0 0 375 374.999991" height="500" preserveAspectRatio="xMidYMid meet" version="1.0"><defs><clipPath id="18deb5f301"><path d="M 0 65.085938 L 318 65.085938 L 318 98 L 0 98 Z M 0 65.085938 " clip-rule="nonzero"/></clipPath><clipPath id="e17189e318"><path d="M 0.046875 283.15625 L 251.859375 283.15625 L 251.859375 316.335938 L 0.046875 316.335938 Z M 0.046875 283.15625 " clip-rule="nonzero"/></clipPath></defs><path fill="#0032a0" d="M 358.566406 207.105469 L 16.433594 207.105469 C 7.382812 207.105469 0.046875 199.761719 0.046875 190.71875 C 0.046875 181.667969 7.382812 174.332031 16.433594 174.332031 L 358.566406 174.332031 C 367.617188 174.332031 374.953125 181.667969 374.953125 190.71875 C 374.953125 199.761719 367.617188 207.105469 358.566406 207.105469 " fill-opacity="1" fill-rule="nonzero"/><g clip-path="url(#18deb5f301)"><path fill="#0032a0" d="M 300.984375 97.863281 L 16.433594 97.863281 C 7.382812 97.863281 0.046875 90.515625 0.046875 81.472656 C 0.046875 72.421875 7.382812 65.085938 16.433594 65.085938 L 300.984375 65.085938 C 310.035156 65.085938 317.371094 72.421875 317.371094 81.472656 C 317.371094 90.515625 310.035156 97.863281 300.984375 97.863281 " fill-opacity="1" fill-rule="nonzero"/></g><g clip-path="url(#e17189e318)"><path fill="#0032a0" d="M 235.4375 316.351562 L 16.433594 316.351562 C 7.382812 316.351562 0.046875 309.007812 0.046875 299.964844 C 0.046875 290.914062 7.382812 283.578125 16.433594 283.578125 L 235.4375 283.578125 C 244.503906 283.578125 251.824219 290.914062 251.824219 299.964844 C 251.824219 309.007812 244.503906 316.351562 235.4375 316.351562 " fill-opacity="1" fill-rule="nonzero"/></g></svg>