<svg xmlns="http://www.w3.org/2000/svg" xmlns:xlink="http://www.w3.org/1999/xlink" width="500" zoomAndPan="magnify" viewBox="0 0 375 374.999991" height="500" preserveAspectRatio="xMidYMid meet" version="1.0"><defs><clipPath id="3534db01f4"><path d="M 68.511719 119 L 189.757812 119 L 189.757812 374.234375 L 68.511719 374.234375 Z M 68.511719 119 " clip-rule="nonzero"/></clipPath><clipPath id="e265209045"><path d="M 120 48 L 328.761719 48 L 328.761719 374.234375 L 120 374.234375 Z M 120 48 " clip-rule="nonzero"/></clipPath></defs><g clip-path="url(#3534db01f4)"><path fill="#0032a0" d="M 68.511719 119.652344 L 68.511719 329.875 C 68.511719 348.625 83.457031 366.558594 106.394531 374.234375 L 106.394531 200.558594 C 108.488281 202.167969 132.246094 220.421875 156.957031 240.292969 C 163.34375 234.886719 170.472656 229.566406 178.445312 224.429688 C 182.019531 222.128906 185.636719 219.769531 189.257812 217.328125 L 68.511719 119.652344 " fill-opacity="1" fill-rule="nonzero"/></g><g clip-path="url(#e265209045)"><path fill="#3871c1" d="M 313.976562 48.042969 C 319.683594 139.925781 247.9375 196.398438 191.320312 232.820312 C 127.375 273.949219 120.730469 328.175781 120.730469 328.175781 C 163.769531 258.699219 215.6875 260.792969 266.304688 222.21875 L 266.15625 374.234375 C 289.097656 366.558594 304.046875 348.625 304.046875 329.875 L 304.046875 182.75 C 353.289062 116.746094 313.976562 48.042969 313.976562 48.042969 " fill-opacity="1" fill-rule="nonzero"/></g><path fill="#51ade5" d="M 286.628906 51.75 C 280.039062 12.140625 256.15625 0.824219 256.15625 0.824219 C 279.679688 77.308594 254.496094 144.292969 217.167969 199.152344 C 257.964844 157.640625 292.207031 107.296875 286.628906 51.75 " fill-opacity="1" fill-rule="nonzero"/></svg>